<svg xmlns="http://www.w3.org/2000/svg" width="185.065" height="126.124" viewBox="0 0 185.065 126.124">
  <g id="Group_110" data-name="Group 110" transform="translate(-136 -72.876)">
    <path id="Union_1" data-name="Union 1" d="M-11879.95,2847.567l-179.05-.079v-3.653h178.073l0-.018,3.3-1.819,3.692,2.264-6.011,3.323Z" transform="translate(12195 -2674.122)" fill="#5f5e5a"/>
    <g id="Group_109" data-name="Group 109">
      <path id="Path_134" data-name="Path 134" d="M12380.065-2671.882v-40.075l-11.723-7.854-17.048-27.713-38.513.268v3.481h36.55l16.378,26.642,10.755,7.319-.045,35.969Z" transform="translate(-12059 2842)" fill="#5f5e5a"/>
      <path id="Path_135" data-name="Path 135" d="M12323.671-2731.9h3.749v17.583h12.941v3.7h-16.69Z" transform="translate(-12059 2842)" fill="#5f5e5a"/>
      <path id="Path_136" data-name="Path 136" d="M12307.784-2747.524h3.659l-.134,74.571h-3.659Z" transform="translate(-12059 2842)" fill="#5f5e5a"/>
      <path id="Path_137" data-name="Path 137" d="M12208.883-2691.7h90.2v15.838h-90.2Z" transform="translate(-12059 2842)" fill="#5f5e5a"/>
      <path id="Path_138" data-name="Path 138" d="M12208.883-2691.7h85.9v11.766h-85.9Z" transform="translate(-12056.888 2843.961)" fill="#fff"/>
      <path id="Path_139" data-name="Path 139" d="M12218.838-2691.7h2.188v-23.531h65.162v23.531h2.488v-25.944h-69.838Z" transform="translate(-12059 2842)" fill="#5f5e5a"/>
      <path id="Path_140" data-name="Path 140" d="M12232.338-2717.644v-21.344h9.578v-2.187h-15.687v-10.86h55.056v11.539h-12.671v2.262h6.788v20.589h2.188v-20.589h6.184v-15.989h-60.033v15.235h6.335v21.344Z" transform="translate(-12059 2842)" fill="#5f5e5a"/>
    </g>
    <g id="Group_108" data-name="Group 108">
      <rect id="Rectangle_74" data-name="Rectangle 74" width="6" height="6" transform="translate(172 140)" fill="#5f5e5a"/>
      <rect id="Rectangle_75" data-name="Rectangle 75" width="6" height="6" transform="translate(165 132)" fill="#5f5e5a"/>
      <rect id="Rectangle_76" data-name="Rectangle 76" width="6" height="6" transform="translate(180 132)" fill="#5f5e5a"/>
      <rect id="Rectangle_77" data-name="Rectangle 77" width="6" height="6" transform="translate(211 132)" fill="#5f5e5a"/>
      <rect id="Rectangle_78" data-name="Rectangle 78" width="6" height="6" transform="translate(204 140)" fill="#5f5e5a"/>
      <rect id="Rectangle_79" data-name="Rectangle 79" width="6" height="6" transform="translate(218 140)" fill="#5f5e5a"/>
    </g>
    <g id="Group_107" data-name="Group 107">
      <path id="Path_141" data-name="Path 141" d="M12260.379-2752.014h-12.354v78.36h12.354Z" transform="translate(-12059 2839.792)" fill="#5f5e5a"/>
      <path id="Path_142" data-name="Path 142" d="M12256.458-2752.014h-8.432v73.844h8.432Z" transform="translate(-12057.235 2842.196)" fill="#fff"/>
      <path id="Path_143" data-name="Path 143" d="M12254.007-2759.366s-5.434-13.311-14.187-8.642c-.3.405-.386.345-.386.345a5.793,5.793,0,0,0-1.727,3.8,10.49,10.49,0,0,0,1.341,5.2c1.095,1.8,3.454,3.235,6.561,4.619,1.544.172,11.74.446,11.74.446h3.569s6.385-1.785,8.754-6.213a6.63,6.63,0,0,0-1.029-7.758,7.328,7.328,0,0,0-7.725-.755C12256.73-2766.163,12254.007-2759.366,12254.007-2759.366Z" transform="translate(-12059 2842)" fill="#5f5e5a"/>
      <path id="Path_145" data-name="Path 145" d="M12239.877-2755.04a13.1,13.1,0,0,1,.04-1.917,13.237,13.237,0,0,1,1.367-4.846,11.54,11.54,0,0,1,5.527-4.84s5.562-.583,4.737,4.119c-.288,1.641-2.047,3.955-4.154,5.252A18.744,18.744,0,0,1,12239.877-2755.04Z" transform="translate(-12043 2842)" fill="#fff"/>
      <path id="Path_144" data-name="Path 144" d="M12251.615-2755.04a13.1,13.1,0,0,0-.04-1.917,13.237,13.237,0,0,0-1.367-4.846,11.54,11.54,0,0,0-5.527-4.84s-5.562-.583-4.737,4.119c.288,1.641,2.047,3.955,4.154,5.252A18.744,18.744,0,0,0,12251.615-2755.04Z" transform="translate(-12059 2842)" fill="#fff"/>
    </g>
    <g id="Group_105" data-name="Group 105">
      <circle id="Ellipse_8" data-name="Ellipse 8" cx="19" cy="19" r="19" transform="translate(152 161)" fill="#5f5e5a"/>
      <circle id="Ellipse_9" data-name="Ellipse 9" cx="15" cy="15" r="15" transform="translate(156 165)" fill="#fff"/>
    </g>
    <g id="Group_106" data-name="Group 106" transform="translate(115)">
      <circle id="Ellipse_8-2" data-name="Ellipse 8" cx="19" cy="19" r="19" transform="translate(152 161)" fill="#5f5e5a"/>
      <circle id="Ellipse_9-2" data-name="Ellipse 9" cx="15" cy="15" r="15" transform="translate(156 165)" fill="#fff"/>
    </g>
  </g>
</svg>
